# xmcd
#
# Track frame offsets:
#	150
#	15548
#	28864
#	40224
#	55404
#	75403
#	91259
#	105483
#	118472
#	135716
#	148270
#	162200
#	180317
#	197600
#	214647
#	231836
#	246641
#	260499
#
# Disc length: 3629 seconds
#
# Revision: 0
# Processed by: cddbd v1.5.1PL0 Copyright (c) Steve Scherf et al.
# Submitted via: audiograbber 1.83.01
#
DISCID=fc0e2b12
DTITLE=Schovanky - GOLD
DYEAR=2004
DGENRE=Folk
TTITLE0=Mas ho akorat
TTITLE1=Ja se neztratim
TTITLE2=Diggy Liggy
TTITLE3=Mam rada desperada
TTITLE4=Dlouha reka
TTITLE5=Prazdna dlan
TTITLE6=Mejdan ve stodole
TTITLE7=Sila ma je v sile volantu
TTITLE8=Chraneny uzemi
TTITLE9=Cervena reka
TTITLE10=Krasnej vzdalenej kout
TTITLE11=Dalsi den
TTITLE12=Starej vuz
TTITLE13=Vnimam
TTITLE14=Svet se porad meni
TTITLE15=Klobouk po tete
TTITLE16=Telefoni
TTITLE17=Lakani
EXTD=
EXTT0=
EXTT1=
EXTT2=
EXTT3=
EXTT4=
EXTT5=
EXTT6=
EXTT7=
EXTT8=
EXTT9=
EXTT10=
EXTT11=
EXTT12=
EXTT13=
EXTT14=
EXTT15=
EXTT16=
EXTT17=
PLAYORDER=
